<svg width="54" height="54" viewBox="0 0 54 54" fill="none" xmlns="http://www.w3.org/2000/svg">
<path d="M6.75 38.25L18.5175 24.5213C19.4237 23.4641 21.0629 23.4755 21.9543 24.5452L29.9227 34.1073C30.7697 35.1237 32.3066 35.1934 33.2422 34.2578L36.4724 31.0276C37.4207 30.0793 38.9827 30.1658 39.8204 31.213L47.25 40.5" stroke="#FF3300" stroke-width="2" stroke-linecap="round" stroke-linejoin="round"/>
<path d="M45 6.75H9C7.75736 6.75 6.75 7.75736 6.75 9V45C6.75 46.2426 7.75736 47.25 9 47.25H45C46.2426 47.25 47.25 46.2426 47.25 45V9C47.25 7.75736 46.2426 6.75 45 6.75Z" stroke="#FF3300" stroke-width="2" stroke-linecap="round" stroke-linejoin="round"/>
<path d="M31.5 18C31.5 16.7574 32.5074 15.75 33.75 15.75C34.9926 15.75 36 16.7574 36 18C36 19.2426 34.9926 20.25 33.75 20.25C32.5074 20.25 31.5 19.2426 31.5 18Z" stroke="#FF3300" stroke-width="2" stroke-linecap="round" stroke-linejoin="round"/>
</svg>
