<svg width="38" height="45" viewBox="0 0 38 45" fill="none" xmlns="http://www.w3.org/2000/svg">
<g opacity="0.4">
<path d="M38 19.6552C38 30.5104 28 39.3103 19 45C10.5 39.3103 0 30.5104 0 19.6552C0 8.79992 8.50659 0 19 0C29.4934 0 38 8.79992 38 19.6552Z" fill="#FF3300"/>
<path d="M13.75 10.5H15.25V18H13.75V10.5Z" fill="#F1EDE2"/>
<path d="M17.5 17.25C17.5 18.0456 17.1839 18.8087 16.6213 19.3713C16.0587 19.9339 15.2956 20.25 14.5 20.25C13.7044 20.25 12.9413 19.9339 12.3787 19.3713C11.8161 18.8087 11.5 18.0456 11.5 17.25V10.5H10V17.25C10.0011 18.3127 10.3782 19.3406 11.0645 20.1519C11.7509 20.9632 12.7022 21.5054 13.75 21.6825V31.5H15.25V21.6825C16.2978 21.5054 17.2491 20.9632 17.9355 20.1519C18.6218 19.3406 18.9989 18.3127 19 17.25V10.5H17.5V17.25Z" fill="#F1EDE2"/>
<path d="M23.5 10.5001H22.75V31.5001H24.25V24.0001H26.5C26.8978 24.0001 27.2794 23.8421 27.5607 23.5608C27.842 23.2794 28 22.8979 28 22.5001V15.0001C28.0232 14.4029 27.9227 13.8074 27.7047 13.251C27.4868 12.6945 27.1562 12.1891 26.7336 11.7665C26.311 11.3439 25.8056 11.0133 25.2491 10.7954C24.6927 10.5774 24.0972 10.4769 23.5 10.5001V10.5001ZM26.5 22.5001H24.25V12.0676C26.41 12.4876 26.5 14.7226 26.5 15.0001V22.5001Z" fill="#F1EDE2"/>
</g>
</svg>
