<svg width="29" height="39" viewBox="0 0 29 39" fill="none" xmlns="http://www.w3.org/2000/svg">
<path d="M14.1486 0.811328V1.62266C17.4707 1.62266 20.6567 2.94236 23.0058 5.29143C25.3549 7.6405 26.6746 10.8265 26.6746 14.1486V33.1404H27.1851V32.6271C27.0497 32.6285 26.9202 32.6832 26.8247 32.7792C26.7292 32.8752 26.6753 33.005 26.6746 33.1404H27.1851V32.6271H1.11214V33.1404H1.62266C1.62267 33.0047 1.56896 32.8746 1.4733 32.7784C1.37763 32.6822 1.24779 32.6278 1.11214 32.6271V33.1404H1.62266V14.1486C1.62266 10.8265 2.94236 7.6405 5.29144 5.29143C7.64051 2.94236 10.8265 1.62266 14.1486 1.62266V0C10.3964 0.000731641 6.79806 1.49162 4.14483 4.14484C1.49161 6.79807 0.000731641 10.3964 0 14.1486V33.1404C0 33.4332 0.116314 33.7139 0.323327 33.9209C0.530339 34.1279 0.811092 34.2442 1.10385 34.2442H27.1768C27.4696 34.2442 27.7504 34.1279 27.9574 33.9209C28.1644 33.7139 28.2807 33.4332 28.2807 33.1404V14.1486C28.281 12.2907 27.9154 10.451 27.2047 8.73439C26.494 7.01781 25.452 5.45806 24.1384 4.1442C22.8248 2.83035 21.2653 1.78812 19.5488 1.07705C17.8324 0.365985 15.9927 -3.53536e-08 14.1348 0L14.1486 0.811328Z" fill="#F1EDE2"/>
<path d="M15.2276 21.6107V19.7838L15.2 13.674C15.2006 13.5919 15.2278 13.5123 15.2776 13.4471C15.3274 13.3819 15.397 13.3346 15.476 13.3125C16.1694 13.1181 16.769 12.6793 17.1639 12.0771C17.5588 11.4749 17.7223 10.7501 17.6242 10.0367C17.5261 9.32327 17.173 8.66951 16.6302 8.19626C16.0875 7.72301 15.3917 7.46228 14.6716 7.46228C13.9515 7.46228 13.2557 7.72301 12.7129 8.19626C12.1701 8.66951 11.8171 9.32327 11.719 10.0367C11.6209 10.7501 11.7844 11.4749 12.1793 12.0771C12.5742 12.6793 13.1737 13.1181 13.8671 13.3125C13.9457 13.3345 14.015 13.3813 14.0647 13.446C14.1145 13.5106 14.142 13.5897 14.1431 13.6712L14.1707 19.0332L14.0327 19.1712H12.101L12.0071 19.2677V20.0956L12.1037 20.1922H14.1569V21.5969L12.1065 21.6107L12.0099 21.7045V22.5462L12.1065 22.64H14.1652H15.1062L15.1973 22.5489L15.2276 21.6107ZM15.0841 12.3521C14.6744 12.4349 14.2489 12.3837 13.8705 12.206C13.4921 12.0284 13.1808 11.7337 12.9828 11.3656C12.7847 10.9975 12.7102 10.5755 12.7704 10.1618C12.8306 9.74817 13.0222 9.36484 13.317 9.06845C13.6118 8.77207 13.9941 8.57836 14.4074 8.51593C14.8208 8.4535 15.2432 8.52567 15.6124 8.72177C15.9816 8.91786 16.2779 9.22749 16.4576 9.60493C16.6372 9.98236 16.6907 10.4076 16.6102 10.8178C16.5356 11.1956 16.351 11.5429 16.0794 11.8159C15.8078 12.0889 15.4615 12.2755 15.0841 12.3521Z" fill="#F1EDE2"/>
<path d="M15.2277 21.6106H15.3905V19.7838L15.3629 13.6739C15.3642 13.626 15.3815 13.5799 15.4119 13.5429C15.4424 13.5059 15.4844 13.4802 15.5312 13.4697C16.1976 13.2889 16.7858 12.8936 17.2048 12.3448C17.6238 11.7961 17.8504 11.1246 17.8493 10.4341H17.7086L17.8466 10.459V10.4341H17.7058L17.8438 10.459V10.4286C17.8416 9.59423 17.5086 8.79476 16.9178 8.20552C16.327 7.61629 15.5267 7.2854 14.6923 7.2854C14.4613 7.28606 14.2309 7.31103 14.0051 7.35991C13.3936 7.4954 12.8364 7.81053 12.4052 8.26486C11.974 8.7192 11.6884 9.29201 11.5849 9.90981C11.5577 10.0833 11.5438 10.2586 11.5435 10.4341C11.5407 11.1206 11.7629 11.7891 12.176 12.3374C12.5892 12.8856 13.1706 13.2833 13.8313 13.4697C13.8776 13.481 13.9191 13.507 13.9495 13.5438C13.9798 13.5806 13.9974 13.6263 13.9996 13.6739L14.0272 18.9697L13.9858 19.0111H12.0541L11.9106 19.1546L11.8637 19.2015V20.1784L12.0072 20.3191L12.0541 20.3688H14.0107V21.4533H12.0513L11.9106 21.5968L11.8609 21.6438V22.6179L12.0044 22.7614L12.0541 22.8083H14.179V22.6455H14.0162V22.8083H15.1863L15.3243 22.6703L15.3739 22.6207V21.6134H15.0483V22.4882L15.0041 22.5324L15.12 22.6455V22.4854H14.179V22.6483H14.3418V22.4854H12.1866V21.7817H14.3335V20.0349H12.1838V19.3284H14.1155L14.3004 19.1408L14.3473 19.0939L14.3197 13.6657C14.3163 13.5476 14.275 13.4337 14.202 13.3408C14.129 13.2479 14.028 13.1809 13.9141 13.1496C13.3105 12.978 12.7813 12.6102 12.41 12.1042C12.0388 11.5983 11.8467 10.9831 11.8641 10.3558C11.8816 9.72855 12.1075 9.12496 12.5062 8.64039C12.9049 8.15582 13.4537 7.8179 14.0659 7.68003C14.2698 7.63539 14.478 7.61318 14.6868 7.6138C15.435 7.61306 16.153 7.90942 16.6829 8.43774C17.2127 8.96606 17.5112 9.68312 17.5126 10.4314H17.6755L17.5154 10.401V10.4341C17.5148 11.0523 17.3111 11.6532 16.9357 12.1444C16.5602 12.6355 16.0338 12.9897 15.4374 13.1524C15.3229 13.1831 15.2214 13.2499 15.1478 13.3429C15.0743 13.4358 15.0326 13.55 15.029 13.6684L15.0566 19.7782V21.6051L15.2277 21.6106ZM15.0511 12.192L15.0842 12.3521L15.1145 12.5121C15.523 12.43 15.898 12.2291 16.1926 11.9345C16.4872 11.6399 16.6882 11.2648 16.7703 10.8564C16.7952 10.7226 16.8081 10.5868 16.8089 10.4507C16.8089 9.89127 16.5869 9.35472 16.1916 8.95889C15.7962 8.56306 15.26 8.34031 14.7006 8.33958C14.5607 8.33982 14.4211 8.35368 14.2839 8.38097C13.8753 8.46275 13.5 8.66361 13.2054 8.95826C12.9107 9.25291 12.7099 9.62816 12.6281 10.0368C12.6017 10.1703 12.5888 10.3062 12.5895 10.4424C12.5895 11.0016 12.8116 11.5379 13.207 11.9332C13.6024 12.3286 14.1386 12.5508 14.6978 12.5508C14.8386 12.5515 14.979 12.5385 15.1173 12.5121L15.0869 12.3521" fill="#F1EDE2"/>
<path d="M15.3353 28.3167H13.4036V33.8994H15.3353V28.3167Z" fill="#F1EDE2"/>
<path d="M22.4109 20.5841C22.3696 19.5915 22.2589 18.603 22.0798 17.6258C21.9192 16.7412 21.7036 15.8674 21.4341 15.0097C21.429 14.9954 21.4197 14.9829 21.4073 14.974C21.395 14.9652 21.3803 14.9603 21.3651 14.96H19.8914C19.8803 14.96 19.8694 14.9626 19.8595 14.9675C19.8496 14.9725 19.841 14.9796 19.8343 14.9884C19.8277 14.9973 19.8231 15.0075 19.821 15.0184C19.819 15.0292 19.8194 15.0404 19.8224 15.0511C20.0904 15.9362 20.3051 16.8365 20.4654 17.7472C20.6322 18.6852 20.74 19.6327 20.7883 20.5841C20.7883 22.3473 20.0879 24.0382 18.8411 25.285C17.5944 26.5317 15.9035 27.2321 14.1403 27.2321C12.3772 27.2321 10.6863 26.5317 9.43953 25.285C8.1928 24.0382 7.4924 22.3473 7.4924 20.5841C7.59014 18.7076 7.91445 16.8498 8.45827 15.0511C8.4618 15.0406 8.46276 15.0295 8.4611 15.0186C8.45943 15.0077 8.45519 14.9973 8.4487 14.9884C8.44222 14.9795 8.43367 14.9723 8.42381 14.9673C8.41395 14.9624 8.40307 14.9599 8.39204 14.96H6.91837C6.90298 14.9594 6.88783 14.964 6.87532 14.973C6.86282 14.982 6.85369 14.9949 6.84938 15.0097C6.58018 15.8677 6.36361 16.7414 6.20088 17.6258C6.02391 18.6033 5.91421 19.5917 5.8725 20.5841C5.88262 22.7739 6.75584 24.8713 8.30267 26.4212C9.8495 27.9711 11.9451 28.8485 14.1348 28.863C16.3269 28.8521 18.4261 27.9763 19.9759 26.426C21.5257 24.8757 22.4008 22.7762 22.4109 20.5841Z" fill="#F1EDE2"/>
<path d="M26.6719 34.2525V37.3478H1.62547V34.2525H26.6719ZM28.2945 32.6299H0.00280762L0.00280762 38.0295C0.00353812 38.2786 0.103012 38.5172 0.279411 38.6931C0.45581 38.869 0.694751 38.9677 0.943851 38.9677H27.3535C27.6026 38.9677 27.8415 38.869 28.0179 38.6931C28.1943 38.5172 28.2938 38.2786 28.2945 38.0295L28.2945 32.6299Z" fill="#F1EDE2"/>
</svg>
