<svg width="14" height="13" viewBox="0 0 14 13" fill="none" xmlns="http://www.w3.org/2000/svg">
  <path
    d="M6.54592 0.565485C5.86496 0.675066 5.24661 1.05273 4.91983 1.55367L4.83177 1.68869L4.60087 1.77283C4.29365 1.88437 3.84163 2.11135 3.5892 2.27964C2.74387 2.84124 2.1627 3.67288 1.9044 4.69628C1.79482 5.13069 1.76547 5.38899 1.76156 5.93493L1.7596 6.42805L1.55414 6.63938C0.963184 7.25186 0.609004 7.93282 0.515078 8.63727C0.483769 8.88187 0.503337 9.40238 0.554214 9.64502C0.712714 10.3847 1.16669 11.1518 1.84766 11.8327C2.09226 12.0773 2.43665 12.3689 2.55797 12.4335C2.64994 12.4824 2.85149 12.4785 2.95325 12.4256C3.1137 12.3395 3.19784 12.2026 3.19784 12.0225C3.19784 11.8601 3.1411 11.7701 2.92389 11.592C2.22532 11.0148 1.70677 10.326 1.50522 9.70959C1.36041 9.26149 1.36041 8.75468 1.50913 8.34375C1.58349 8.13633 1.7322 7.85455 1.88288 7.64517C2.01007 7.4671 2.4073 7.04444 2.63429 6.85071L2.74387 6.75483L2.70669 6.55915C2.60298 5.99755 2.65581 5.24418 2.83975 4.69041C3.12544 3.82746 3.7027 3.18172 4.54803 2.77471C4.95896 2.57903 5.22509 2.50076 5.95301 2.36965L6.13695 2.33834L6.01367 2.21506C5.81995 2.02134 5.78082 1.90785 5.85909 1.7787C5.99802 1.55171 6.87858 1.42452 7.58498 1.53019C8.02917 1.59476 8.21703 1.71999 8.17985 1.91959C8.16224 2.00569 8.01352 2.20724 7.90003 2.29334C7.79827 2.37161 7.78066 2.36378 8.12506 2.41074C8.24638 2.42835 8.36183 2.44597 8.37944 2.44988C8.39705 2.45184 8.48315 2.46553 8.56925 2.47727C8.86473 2.52032 9.32066 2.69057 9.67288 2.89016C10.4321 3.3187 10.9742 4.01336 11.2011 4.85087C11.2951 5.19722 11.3205 5.37725 11.3303 5.78622C11.342 6.17366 11.3322 6.30868 11.2775 6.61981L11.252 6.75874L11.3401 6.83506C11.5397 7.01117 11.8978 7.37318 12.0093 7.51407C12.2793 7.85455 12.4496 8.18133 12.5455 8.5453C12.6081 8.78207 12.6159 9.18908 12.5631 9.43173C12.4026 10.1616 11.8586 10.9522 11.0955 11.5666C10.9937 11.6488 10.8939 11.7388 10.8724 11.7701C10.7374 11.9619 10.7824 12.2456 10.9702 12.3806C11.115 12.4863 11.2912 12.5039 11.4418 12.4276C11.6199 12.3376 12.1404 11.864 12.4183 11.5431C13.0014 10.868 13.3262 10.2418 13.4612 9.5237C13.516 9.24192 13.5121 8.75859 13.4534 8.47681C13.3067 7.78215 12.9897 7.21076 12.4007 6.59242L12.2285 6.41043L12.2265 5.92711C12.2265 5.53183 12.2187 5.39486 12.1835 5.16983C11.9212 3.49285 10.9428 2.32269 9.3187 1.74543C9.1739 1.69456 9.16607 1.68869 9.07997 1.55758C9.0291 1.48322 8.92539 1.35603 8.84907 1.27385C8.28551 0.680936 7.43626 0.418726 6.54592 0.565485Z"
    fill="#D3072B" />
  <path
    d="M5.07441 3.71591C4.77698 3.74917 4.52847 3.87245 4.28778 4.10139C4.10188 4.27946 3.99035 4.43209 3.8749 4.66495C3.28394 5.8586 3.66943 7.49056 4.65566 7.96607C4.87482 8.07369 4.96874 8.09521 5.19378 8.09521C5.41294 8.09521 5.56752 8.05804 5.76125 7.95628C6.16239 7.74886 6.47352 7.35163 6.64963 6.8233C6.769 6.46716 6.78856 6.33019 6.78856 5.9036C6.78856 5.47898 6.76704 5.33809 6.65159 4.98978C6.37177 4.15031 5.74168 3.63959 5.07441 3.71591ZM5.53622 4.1601C5.72602 4.24815 5.8493 4.34404 5.98041 4.51036C6.47156 5.12871 6.56353 6.17951 6.19566 6.94658C6.14282 7.05616 6.0802 7.16769 6.05672 7.19509L6.01563 7.24401L6.02933 7.16574C6.03911 7.12269 6.04498 6.95049 6.04303 6.78416C6.04303 6.49456 6.03911 6.47303 5.97845 6.29692C5.89822 6.06015 5.81017 5.91534 5.66341 5.78033C5.37771 5.51616 5.01179 5.52986 4.73197 5.81555C4.60282 5.94861 4.46976 6.21473 4.41693 6.44172C4.37388 6.63936 4.37192 7.01311 4.41693 7.19509C4.43258 7.26553 4.44432 7.32424 4.44041 7.32815C4.43063 7.33793 4.30343 7.154 4.2369 7.03659C4.1508 6.88004 4.06666 6.64327 4.01774 6.40846C3.95708 6.12472 3.95708 5.68249 4.01774 5.39875C4.10971 4.96238 4.26038 4.66104 4.51672 4.4047C4.75937 4.16206 4.94722 4.07987 5.23683 4.09161C5.37771 4.09748 5.42859 4.10922 5.53622 4.1601Z"
    fill="#D3072B" />
  <path
    d="M8.70235 3.73156C8.4695 3.77852 8.21511 3.92332 8.01161 4.12292C7.70635 4.42035 7.5048 4.81758 7.39326 5.33613C7.36391 5.46919 7.35608 5.58464 7.35608 5.91338C7.35608 6.29105 7.36195 6.34192 7.40891 6.54543C7.59872 7.3438 8.0664 7.91323 8.65735 8.06586C8.83346 8.11087 9.1485 8.09912 9.32266 8.03846C9.90774 7.83691 10.3598 7.2127 10.4967 6.41628C10.5496 6.11493 10.5496 5.69227 10.4967 5.39092C10.3519 4.55145 9.83925 3.8881 9.22091 3.74134C9.08784 3.71003 8.83542 3.70612 8.70235 3.73156ZM9.1896 4.12292C9.64749 4.26381 10.0154 4.78627 10.1347 5.46919C10.1739 5.68835 10.1739 6.11689 10.1347 6.33801C10.0799 6.65305 9.92144 7.05615 9.79033 7.21465L9.74924 7.26357L9.76098 7.21074C9.90383 6.55717 9.6651 5.85664 9.23069 5.65313C9.13676 5.61008 9.0898 5.6003 8.96065 5.6003C8.82563 5.6003 8.78845 5.60812 8.69061 5.659C8.46754 5.77054 8.27969 6.03471 8.1838 6.36736C8.14467 6.49847 8.1388 6.56304 8.14075 6.82329C8.14075 7.03267 8.15054 7.15791 8.17206 7.22835C8.18772 7.2851 8.19554 7.33206 8.18772 7.33206C8.14271 7.33206 7.94507 6.98962 7.86093 6.76459C7.74157 6.44759 7.68678 5.931 7.7357 5.56703C7.86876 4.56515 8.52233 3.91745 9.1896 4.12292Z"
    fill="#D3072B" />
  <path
    d="M8.93127 8.57858C8.47925 8.64511 8.02136 9.22237 7.73567 10.0912C7.63196 10.4101 7.5713 10.6763 7.52238 11.0207L7.49107 11.2555L7.09971 11.2535C6.8375 11.2535 6.63986 11.2418 6.4931 11.2203C5.66734 11.0931 4.90614 10.7232 4.5911 10.2966C4.54414 10.234 4.48935 10.1695 4.46782 10.1538C4.24475 9.99726 3.93753 10.2223 4.02558 10.4786C4.08625 10.6547 4.36411 10.9443 4.66741 11.1479C5.78279 11.8934 7.47542 12.0597 8.93127 11.5647C9.53984 11.3592 10.168 10.9874 10.5593 10.6019C10.7198 10.4434 10.7491 10.3769 10.7237 10.2399C10.6846 10.0325 10.3832 9.94834 10.2404 10.1029C10.2149 10.1323 10.1093 10.2262 10.0075 10.3103L9.82161 10.4649L9.80987 10.146C9.78248 9.49045 9.6455 9.01886 9.40873 8.77035C9.28154 8.63729 9.07999 8.55706 8.93127 8.57858Z"
    fill="#D3072B" />
</svg>