<svg width="14" height="13" viewBox="0 0 14 13" fill="none" xmlns="http://www.w3.org/2000/svg">
  <path
    d="M7.76065 12.4596C8.25347 12.7835 8.80494 12.8607 9.41212 12.6906C10.0229 12.5192 10.4922 12.1842 10.8197 11.6855C11.3163 10.9295 11.2235 10.0085 10.5441 8.91707L10.5778 8.92205L10.5774 8.92182C10.5715 8.91231 10.566 8.90303 10.5599 8.89351L10.7782 8.92567C11.9027 9.09689 12.7133 8.8027 13.2099 8.04672C13.3836 7.78242 13.4975 7.49706 13.5496 7.19584C13.6395 6.77346 13.6069 6.34746 13.4529 5.91692C13.2985 5.4873 13.0457 5.15528 12.6895 4.92133C12.2429 4.62804 11.6153 4.50053 10.8052 4.53745L10.9354 4.33883L10.9873 4.26002L11.0978 4.09174C11.4971 3.48388 11.6554 2.89277 11.5779 2.30891C11.4982 1.72891 11.1653 1.24583 10.5819 0.86263C10.0474 0.51159 9.49071 0.401295 8.90935 0.527443C8.33024 0.653138 7.85419 0.998516 7.48322 1.56335L7.11972 2.11663L7.05178 1.89355C6.87445 1.32781 6.53586 0.879615 6.03376 0.549638C5.54072 0.225775 4.98948 0.14832 4.38229 0.318631C3.77148 0.490074 3.30199 0.824808 2.97451 1.32374C2.47784 2.07972 2.5707 3.0008 3.25036 4.0922L3.21661 4.08699L3.21684 4.08721C3.22273 4.09672 3.22839 4.10624 3.23428 4.11575L3.01595 4.08359C1.89149 3.91237 1.08093 4.20634 0.584268 4.96255C0.41056 5.22685 0.296641 5.51221 0.244778 5.81342C0.15464 6.23558 0.187253 6.66181 0.341258 7.09234C0.495715 7.52174 0.74869 7.85398 1.10494 8.08793C1.55133 8.381 3.30947 8.8951 5.33825 7.51563L5.15163 7.17115C3.45668 7.86916 2.23778 7.97809 1.49652 7.49139C1.17107 7.2776 0.982188 6.95215 0.928287 6.5146C0.873026 6.07795 0.957729 5.68931 1.17854 5.35277C1.7889 4.42376 3.14618 4.52454 5.25151 5.65987L5.46689 5.32921C3.58985 3.84873 2.95888 2.64342 3.56924 1.71418C3.80364 1.35748 4.13339 1.12466 4.56053 1.0189C4.98812 0.909284 5.35252 0.955938 5.65781 1.15637C6.3993 1.64352 6.78454 2.80626 6.81488 4.63755L7.20692 4.67311C7.36273 3.50585 7.63836 2.62258 8.03514 2.01834C8.63893 1.0993 9.36117 0.916078 10.2048 1.47027C10.6109 1.73706 10.8414 2.06726 10.8935 2.46133C10.9499 2.85404 10.8414 3.25332 10.573 3.66189C10.1704 4.27474 9.46489 4.8869 8.45594 5.49364L8.64256 5.83811C10.3375 5.14011 11.5564 5.03094 12.2977 5.51787C12.6231 5.73144 12.812 6.05711 12.8659 6.49467C12.9212 6.93109 12.8365 7.31995 12.6156 7.65627C12.0053 8.5855 10.648 8.48472 8.54268 7.34939L8.3273 7.68005C10.2041 9.16053 10.8353 10.3658 10.225 11.2949C9.99077 11.6518 9.66102 11.8844 9.23389 11.9904C8.80607 12.0998 8.4419 12.0533 8.13661 11.8527C7.39489 11.3657 7.00988 10.203 6.97931 8.37171L6.58727 8.33615C6.23193 10.7157 7.25833 12.1296 7.76065 12.4596Z"
    fill="#009739" />
  <path
    d="M2.23389 11.3764L2.70179 11.9199C5.34772 9.54303 5.96261 8.6849 7.07937 6.50823L6.74441 6.33203C5.56084 8.48175 4.51882 9.60372 2.23389 11.3764Z"
    fill="#009739" />
  <path
    d="M2.23389 11.3764C2.29345 11.6221 2.46761 11.8243 2.70179 11.9199C5.34772 9.54303 5.96261 8.6849 7.07937 6.50823L7.07258 6.49872C6.99761 6.39205 6.87464 6.32977 6.74441 6.33203C5.56084 8.48175 4.51882 9.60372 2.23389 11.3764Z"
    fill="#009739" />
</svg>