<svg width="12" height="15" viewBox="0 0 12 15" fill="none" xmlns="http://www.w3.org/2000/svg">
<path fill-rule="evenodd" clip-rule="evenodd" d="M5.52902 0.596736C6.11102 0.560373 6.70877 0.6971 7.18352 1.00401C7.59077 1.25274 7.88477 1.62801 8.03552 2.03601C8.31827 1.81928 8.67227 1.67237 9.03752 1.62437C9.75602 1.49855 10.5825 1.87892 10.9313 2.53128C11.2823 3.17274 11.301 3.89128 11.19 4.53419C11.07 5.19819 10.899 5.7611 10.7768 6.37565L10.0193 10.0106C9.89177 10.6178 9.77402 11.2266 9.66677 11.8382C9.61127 12.1371 9.56177 12.4338 9.52877 12.7298L9.53102 12.7356C9.49352 13.0447 9.47627 13.3524 9.48977 13.6615V13.6767C9.49277 13.7356 9.45377 13.7873 9.39977 13.8076C8.27702 14.2106 7.10627 14.4273 5.91227 14.4076C4.71977 14.4207 3.51827 14.1436 2.42552 13.6382C2.32802 13.5938 2.27252 13.5015 2.27252 13.4055V13.3182C2.27627 12.0956 2.26727 10.7836 1.92452 9.55237C1.61627 8.31019 1.14227 7.05565 0.904517 5.71092C0.810017 5.04619 0.652517 4.37274 0.832517 3.58874C0.924017 3.21346 1.14077 2.79383 1.53752 2.53855C1.92602 2.2811 2.37977 2.22583 2.77052 2.24765C2.94902 2.26001 3.11852 2.28837 3.28502 2.32328C3.37877 1.91674 3.61052 1.52474 3.95927 1.23237C4.37627 0.860009 4.94702 0.641827 5.52902 0.596736ZM5.77727 1.44255L5.59727 1.45055C4.85102 1.49783 4.15127 1.8091 3.49502 2.37637C3.98702 2.50801 4.43627 2.71819 4.86002 2.95601C5.43602 3.35237 5.99552 3.65783 6.70202 3.72983C6.72677 3.73201 6.74552 3.75383 6.74177 3.7771C6.73952 3.79746 6.72227 3.81346 6.70127 3.81492C5.99627 3.90292 5.22902 3.64546 4.64027 3.33783C4.03352 3.07819 3.36152 2.91237 2.75777 2.91892C2.12627 2.92837 1.76252 3.21928 1.69127 3.75674C1.61102 4.27528 1.73027 4.92619 1.84877 5.5531C2.09102 6.80183 2.54702 8.0411 2.82377 9.36983C2.96402 10.0331 3.06002 10.7109 3.08627 11.3902C3.09077 12.0004 3.12677 12.6076 2.94677 13.2295C3.84602 13.7146 4.86227 14.0396 5.92277 14.0927C7.02227 14.1473 8.16377 13.9822 9.17252 13.572C9.15377 13.3153 9.14402 13.0586 9.14477 12.804C8.28302 12.988 7.43552 13.0753 6.57677 13.0433C5.59727 13.0026 4.62152 12.7836 3.78452 12.3451C4.68602 12.6535 5.64077 12.7138 6.56327 12.6164C7.46852 12.5175 8.38052 12.2804 9.17477 11.9458C9.21602 11.2666 9.28952 10.5916 9.34502 9.91674C9.47252 8.67019 9.68777 7.43092 10.0178 6.21637C10.3178 4.99455 10.854 3.80183 10.4213 2.7691C10.0403 1.7291 8.13527 1.69637 7.57277 2.84474C7.56302 2.86583 7.53527 2.87528 7.51202 2.86583C7.49177 2.85783 7.48202 2.83674 7.48727 2.81637C7.55477 2.55165 7.72202 2.32983 7.92977 2.14146C7.15427 1.61783 6.38027 1.39383 5.59727 1.45055L5.77727 1.44255ZM5.99777 5.92983C6.16652 5.90365 6.18677 6.02801 6.23027 6.07528C6.26702 6.14074 6.29477 6.20619 6.32027 6.27019C6.40727 6.53419 6.45977 6.8011 6.50777 7.06583C6.59702 7.59892 6.61277 8.13492 6.63152 8.67019C6.61352 9.20692 6.59702 9.74292 6.50552 10.2775C6.45527 10.5422 6.40577 10.8076 6.30752 11.0724C6.27827 11.1378 6.24752 11.204 6.19802 11.2702C6.16952 11.3015 6.13727 11.3466 6.05252 11.356C5.96402 11.3444 5.94527 11.2906 5.92427 11.26C5.85902 11.1218 5.85452 10.9887 5.84477 10.8542C5.89652 10.9778 5.94752 11.1095 6.02027 11.2047C6.06527 11.2898 6.07052 11.1393 6.10652 11.0178C6.15752 10.7706 6.17177 10.5066 6.18227 10.2455C6.20402 9.72255 6.22277 9.19674 6.20777 8.67092C6.22427 8.1451 6.20252 7.62001 6.18527 7.09565C6.17777 6.83383 6.16052 6.57128 6.12077 6.31746C6.11477 6.20401 6.04802 6.03019 6.04127 6.02655C5.97377 6.05855 5.90402 6.22146 5.85377 6.33419C5.88002 6.20037 5.84477 6.06583 5.99777 5.9291V5.92983ZM3.61427 5.97783C3.77702 5.93055 3.81452 6.05274 3.86402 6.09492C3.90902 6.15455 3.94427 6.21565 3.98027 6.27819C4.10252 6.52765 4.19027 6.78437 4.27502 7.04183C4.43552 7.5611 4.52627 8.09128 4.61702 8.61856C4.67252 9.15237 4.72952 9.68619 4.71302 10.2258C4.69952 10.4971 4.68677 10.7655 4.62452 11.0404C4.60652 11.1087 4.58402 11.1786 4.54427 11.2491C4.51952 11.2847 4.49327 11.3327 4.41152 11.3516C4.32152 11.3509 4.29602 11.3007 4.27202 11.2731C4.18727 11.1429 4.16477 11.0127 4.13702 10.8804C4.20452 10.9953 4.27277 11.1204 4.35902 11.2055C4.41377 11.2855 4.39952 11.1349 4.41902 11.0098C4.43552 10.7589 4.41377 10.4949 4.38677 10.2346C4.33652 9.71383 4.28402 9.19092 4.19702 8.67092C4.14152 8.14728 4.04702 7.62801 3.95852 7.11092C3.91577 6.85274 3.86252 6.59455 3.78752 6.34728C3.76727 6.23601 3.67652 6.07165 3.67052 6.06801C3.60527 6.10946 3.55952 6.27965 3.52652 6.39674C3.53402 6.26074 3.48002 6.13201 3.61427 5.97783ZM8.28152 5.93055C8.45177 5.91746 8.46152 6.04401 8.50202 6.09419C8.53202 6.1611 8.55302 6.22801 8.57402 6.29637C8.63852 6.56474 8.66852 6.8331 8.69402 7.10219C8.73752 7.64037 8.70902 8.17565 8.68202 8.71165C8.61827 9.24328 8.55752 9.77783 8.42102 10.3022C8.34827 10.564 8.27627 10.8244 8.15552 11.0804C8.12177 11.1436 8.08427 11.2076 8.03102 11.2695C7.99877 11.2986 7.96352 11.3415 7.87802 11.3436C7.79027 11.3255 7.77602 11.2709 7.75802 11.2396C7.70552 11.0964 7.71077 10.964 7.71452 10.8287C7.75427 10.956 7.79402 11.092 7.85777 11.1916C7.89527 11.2804 7.91477 11.1291 7.96127 11.0113C8.03252 10.7691 8.06852 10.5058 8.10002 10.2476C8.16677 9.72765 8.22977 9.20401 8.25902 8.67965C8.32052 8.15601 8.34302 7.63092 8.36927 7.10728C8.38427 6.84546 8.38952 6.58292 8.37002 6.32692C8.37527 6.21419 8.32277 6.03601 8.31752 6.03165C8.24552 6.05855 8.16377 6.21565 8.10452 6.32401C8.14127 6.1931 8.11727 6.05637 8.28152 5.93055Z" fill="#BB980E"/>
</svg>
