<svg width="12" height="13" viewBox="0 0 12 13" fill="none" xmlns="http://www.w3.org/2000/svg">
<path d="M8.17467 2.847V2.21C8.17467 1.56867 7.96943 1.04 7.55895 0.624C7.14847 0.208 6.62882 0 6 0C5.31878 0 4.78603 0.212333 4.40175 0.637C4.01747 1.06167 3.82533 1.62933 3.82533 2.34V2.535C3.82533 2.56967 3.82969 2.6 3.83843 2.626L3.85153 2.847C3.20524 2.38767 2.62445 2.158 2.10917 2.158C1.70742 2.158 1.32314 2.29233 0.956332 2.561C0.606987 2.81233 0.349345 3.14167 0.183406 3.549C0.0611354 3.835 0 4.121 0 4.407C0 5.28233 0.50655 5.94967 1.51965 6.409L1.71616 6.5C0.572052 7.02 0 7.722 0 8.606C0 9.204 0.209607 9.72833 0.628821 10.179C1.04803 10.6297 1.54585 10.855 2.12227 10.855C2.64629 10.855 3.16594 10.6687 3.68122 10.296L3.85153 10.166C3.83406 10.3393 3.82533 10.5473 3.82533 10.79C3.82533 11.44 4.03057 11.9708 4.44105 12.3825C4.85153 12.7942 5.37118 13 6 13C6.68996 13 7.22489 12.7855 7.6048 12.3565C7.98472 11.9275 8.17467 11.3663 8.17467 10.673V10.166C8.82096 10.6253 9.39738 10.855 9.90393 10.855C10.4716 10.855 10.9629 10.6275 11.3777 10.1725C11.7926 9.7175 12 9.19533 12 8.606C12 7.722 11.4935 7.05033 10.4803 6.591L10.2838 6.5C11.4279 5.98 12 5.28233 12 4.407C12 3.84367 11.7948 3.328 11.3843 2.86C10.9738 2.392 10.4782 2.158 9.89738 2.158C9.31659 2.158 8.80349 2.34 8.35808 2.704L8.17467 2.847ZM7.07424 5.044C8.08734 3.57933 9.0262 2.847 9.89083 2.847C10.2489 2.847 10.5742 3.00733 10.8668 3.328C11.1594 3.64867 11.3057 4.00833 11.3057 4.407C11.3057 5.48167 10.1354 6.11867 7.79476 6.318V6.695C8.95633 6.79033 9.83188 6.99833 10.4214 7.319C11.0109 7.63967 11.3057 8.06867 11.3057 8.606C11.3057 8.996 11.1638 9.3535 10.8799 9.6785C10.5961 10.0035 10.2664 10.166 9.89083 10.166C9.00873 10.166 8.06987 9.42933 7.07424 7.956L6.73362 8.151C7.23144 9.15633 7.48035 10.0057 7.48035 10.699C7.48035 11.7737 6.9869 12.311 6 12.311C5.52838 12.311 5.16157 12.168 4.89956 11.882C4.64629 11.5787 4.51965 11.1973 4.51965 10.738C4.51965 10.0447 4.76856 9.18233 5.26638 8.151L4.92576 7.956C3.93013 9.42933 2.99127 10.166 2.10917 10.166C1.75109 10.166 1.42576 10.0122 1.13319 9.7045C0.840611 9.39683 0.694323 9.03067 0.694323 8.606C0.694323 7.53133 1.86026 6.89433 4.19214 6.695V6.318C1.86026 6.12733 0.694323 5.49033 0.694323 4.407C0.694323 4.02567 0.834061 3.67033 1.11354 3.341C1.39301 3.01167 1.72489 2.847 2.10917 2.847C2.9738 2.847 3.91266 3.57933 4.92576 5.044L5.26638 4.862C4.76856 3.848 4.51965 2.98133 4.51965 2.262C4.51965 1.80267 4.64629 1.42133 4.89956 1.118C5.16157 0.832 5.52838 0.689 6 0.689C6.9869 0.689 7.48035 1.222 7.48035 2.288C7.48035 2.99 7.23144 3.848 6.73362 4.862L7.07424 5.044Z" fill="#D3072B"/>
</svg>
