<svg width="138" height="82" viewBox="0 0 138 82" fill="none" xmlns="http://www.w3.org/2000/svg">
<path d="M87.8141 32.2909L86.9141 29.2771H79.4113L78.5112 32.2909H71.4963L79.2836 10.9326H87.2625L95.0904 32.2909H87.8141ZM80.8457 24.4979H85.4913L83.2556 16.8906H83.1337L80.8457 24.4979Z" fill="#68052E"/>
<path d="M106.315 16.397V32.2909H99.4572V16.397H92.4423V10.9326H113.301V16.397H106.315Z" fill="#68052E"/>
<path d="M127.145 32.2909L126.251 29.2771H118.766L117.866 32.2909H110.851L118.644 10.9326H126.617L134.41 32.2909H127.145ZM120.177 24.4979H124.822L122.593 16.8906H122.465L120.177 24.4979Z" fill="#68052E"/>
<path d="M89.109 36.4373C89.9783 36.857 90.7171 37.5054 91.246 38.3129C91.7745 39.1158 92.0515 40.0579 92.0416 41.019C92.0416 43.6438 90.8511 45.2988 88.4702 45.984V46.106C91.1802 46.7293 92.5352 48.5101 92.5352 51.4485C92.5554 52.495 92.2688 53.5246 91.7106 54.4101C91.1611 55.2727 90.3832 55.9662 89.4633 56.4135C88.4888 56.8949 87.4144 57.1396 86.3275 57.1278H71.9202V35.7694H86.1416C87.1692 35.7581 88.1853 35.9867 89.109 36.4373ZM78.7841 44.0909H83.5053C83.7166 44.096 83.9265 44.0556 84.1209 43.9725C84.3153 43.8893 84.4895 43.7653 84.6318 43.609C84.9348 43.2856 85.0976 42.8556 85.0848 42.4127V42.1049C85.0891 41.6717 84.9221 41.2543 84.6202 40.9435C84.4776 40.7906 84.305 40.6689 84.1131 40.586C83.9212 40.503 83.7143 40.4606 83.5053 40.4615H78.7841V44.0909ZM78.7841 52.1627H84.0105C84.2226 52.1672 84.4332 52.1265 84.6284 52.0434C84.8236 51.9603 84.999 51.8367 85.1428 51.6807C85.4458 51.3574 85.6086 50.9274 85.5958 50.4845V50.1709C85.6077 49.7299 85.4449 49.302 85.1428 48.9805C84.9999 48.8233 84.8248 48.6989 84.6293 48.6157C84.4339 48.5326 84.2228 48.4925 84.0105 48.4985H78.7841V52.1627Z" fill="#68052E"/>
<path d="M114.039 55.2056C112.196 56.7309 109.577 57.4955 106.182 57.4993C102.787 57.5032 100.164 56.7386 98.3134 55.2056C96.459 53.657 95.5337 51.431 95.5376 48.5275V35.752H102.396V48.4171C102.343 49.4625 102.688 50.4892 103.36 51.2916C104.128 51.9853 105.126 52.3693 106.162 52.3693C107.197 52.3693 108.195 51.9853 108.963 51.2916C109.639 50.4971 109.987 49.4761 109.939 48.4345V35.7694H116.803V48.5449C116.803 51.4716 115.882 53.6919 114.039 55.2056Z" fill="#68052E"/>
<path d="M119.799 35.7695H126.663V51.6634H137.621V57.1278H119.799V35.7695Z" fill="#68052E"/>
<path d="M87.8664 81.9755L86.9604 78.9675H79.4113L78.5053 81.9988H71.4498L79.2893 60.5127H87.3146L95.1542 81.9988L87.8664 81.9755ZM80.8979 74.136H85.5435L83.2961 66.4823H83.1684L80.8979 74.136Z" fill="#FF3300"/>
<path d="M112.314 61.4315C113.343 62.0345 114.186 62.9108 114.747 63.9633C115.341 65.0713 115.643 66.3125 115.624 67.5695V67.976C115.642 69.2385 115.34 70.485 114.747 71.5996C114.19 72.6585 113.347 73.5398 112.314 74.1431C111.232 74.7691 109.999 75.0883 108.749 75.0664H103.598V82H96.6931V60.5139H108.749C109.998 60.4903 111.231 60.8075 112.314 61.4315ZM103.604 70.0375H106.449C106.747 70.0583 107.046 70.0174 107.328 69.9175C107.61 69.8176 107.868 69.6608 108.087 69.4568C108.275 69.2507 108.421 69.0089 108.515 68.7456C108.609 68.4822 108.648 68.2028 108.632 67.9237V67.6798C108.651 67.3988 108.612 67.1169 108.519 66.8513C108.425 66.5857 108.278 66.342 108.087 66.1351C107.865 65.9375 107.606 65.7867 107.324 65.6919C107.043 65.5971 106.745 65.5602 106.449 65.5835H103.604V70.0375Z" fill="#FF3300"/>
<path d="M132.766 61.4312C133.796 62.0342 134.638 62.9106 135.2 63.9631C135.791 65.0721 136.092 66.3126 136.076 67.5693V67.9758C136.092 69.238 135.79 70.4838 135.2 71.5994C134.643 72.6583 133.8 73.5396 132.766 74.1429C131.684 74.7689 130.451 75.0881 129.201 75.0662H124.05V81.9998H117.157V60.5137H129.213C130.458 60.4922 131.687 60.8093 132.766 61.4312ZM124.056 70.0373H126.896C127.195 70.0585 127.495 70.0179 127.778 69.918C128.06 69.8181 128.32 69.661 128.539 69.4566C128.728 69.2505 128.873 69.0087 128.967 68.7453C129.061 68.482 129.101 68.2026 129.085 67.9235V67.6796C129.104 67.3986 129.065 67.1167 128.971 66.8511C128.877 66.5855 128.73 66.3418 128.539 66.1349C128.316 65.9368 128.056 65.7858 127.774 65.691C127.491 65.5962 127.193 65.5595 126.896 65.5833H124.056V70.0373Z" fill="#FF3300"/>
<path d="M29.7727 1.70726V3.41454C36.7634 3.41454 43.4677 6.19156 48.4108 11.1347C53.3539 16.0778 56.1309 22.7821 56.1309 29.7727V69.7368H57.2052V68.6567C56.9202 68.6597 56.6478 68.7747 56.4469 68.9767C56.2459 69.1788 56.1324 69.4518 56.1309 69.7368H57.2052V68.6567H2.34026V69.7368H3.41455C3.41455 69.4513 3.30154 69.1775 3.10023 68.9751C2.89893 68.7727 2.62571 68.6582 2.34026 68.6567V69.7368H3.41455V29.7727C3.41455 22.7821 6.19157 16.0778 11.1347 11.1347C16.0778 6.19156 22.7821 3.41454 29.7727 3.41454V0C21.877 0.00153958 14.305 3.13879 8.72191 8.72193C3.13878 14.3051 0.00153958 21.877 0 29.7727V69.7368C0 70.3528 0.244758 70.9437 0.680371 71.3793C1.11598 71.8149 1.70677 72.0596 2.32282 72.0596H57.1878C57.8038 72.0596 58.3947 71.8149 58.8303 71.3793C59.2659 70.9437 59.5106 70.3528 59.5106 69.7368V29.7727C59.5114 25.8632 58.742 21.9918 57.2464 18.3796C55.7508 14.7675 53.5583 11.4853 50.7941 8.72058C48.03 5.95585 44.7482 3.76272 41.1363 2.26643C37.5244 0.770137 33.6532 -7.4394e-08 29.7437 0L29.7727 1.70726Z" fill="#FF3300"/>
<path d="M32.0432 45.4744V41.6301L31.9851 28.7733C31.9862 28.6007 32.0435 28.4331 32.1483 28.2959C32.253 28.1586 32.3996 28.0592 32.5658 28.0126C34.0249 27.6036 35.2866 26.6802 36.1176 25.413C36.9485 24.1458 37.2927 22.6206 37.0862 21.1194C36.8798 19.6182 36.1368 18.2425 34.9946 17.2466C33.8525 16.2508 32.3884 15.7021 30.8731 15.7021C29.3577 15.7021 27.8936 16.2508 26.7514 17.2466C25.6093 18.2425 24.8663 19.6182 24.6599 21.1194C24.4535 22.6206 24.7975 24.1458 25.6285 25.413C26.4595 26.6802 27.7212 27.6036 29.1803 28.0126C29.3456 28.0589 29.4915 28.1575 29.5961 28.2936C29.7008 28.4296 29.7586 28.5959 29.761 28.7675L29.8191 40.0506L29.5287 40.341H25.4638L25.2664 40.5442V42.2863L25.4696 42.4896H29.7901V45.4453L25.4754 45.4744L25.2722 45.6718V47.443L25.4754 47.6404H29.8074H31.7877L31.9793 47.4488L32.0432 45.4744ZM31.7412 25.9917C30.879 26.1659 29.9836 26.0581 29.1874 25.6843C28.3911 25.3105 27.7362 24.6905 27.3193 23.9159C26.9025 23.1414 26.7458 22.2532 26.8725 21.3828C26.9992 20.5123 27.4024 19.7057 28.0227 19.082C28.643 18.4583 29.4475 18.0507 30.3173 17.9193C31.187 17.788 32.076 17.9398 32.8528 18.3525C33.6296 18.7651 34.2532 19.4167 34.6313 20.2109C35.0094 21.0051 35.122 21.8999 34.9525 22.763C34.7956 23.558 34.407 24.2889 33.8355 24.8634C33.2641 25.438 32.5354 25.8306 31.7412 25.9917Z" fill="#FF3300"/>
<path d="M32.0433 45.4754H32.3859V41.6312L32.3278 28.7744C32.3306 28.6735 32.3669 28.5765 32.431 28.4986C32.4952 28.4208 32.5836 28.3666 32.6821 28.3446C34.0842 27.9642 35.3219 27.1323 36.2037 25.9776C37.0855 24.8229 37.5622 23.4098 37.56 21.9569H37.2638L37.5542 22.0092V21.9569H37.258L37.5484 22.0092V21.9453C37.5437 20.1895 36.843 18.5072 35.5998 17.2673C34.3566 16.0273 32.6725 15.331 30.9167 15.3311C30.4305 15.3324 29.9459 15.385 29.4707 15.4878C28.1838 15.773 27.0115 16.4361 26.104 17.3921C25.1966 18.3482 24.5956 19.5535 24.3779 20.8536C24.3206 21.2186 24.2914 21.5874 24.2908 21.9569C24.2848 23.4014 24.7523 24.8082 25.6217 25.9618C26.4911 27.1154 27.7146 27.9524 29.1049 28.3446C29.2024 28.3684 29.2897 28.4231 29.3536 28.5005C29.4174 28.578 29.4544 28.6741 29.4591 28.7744L29.5172 39.9181L29.4301 40.0052H25.3652L25.0632 40.3072L24.9645 40.4059V42.4616L25.2664 42.7577L25.3652 42.8623H29.4824V45.1444H25.3594L25.0632 45.4464L24.9587 45.5451V47.595L25.2606 47.897L25.3652 47.9957H29.8366V47.6531H29.494V47.9957H31.9562L32.2465 47.7053L32.351 47.6008V45.4812H31.6658V47.3221L31.5729 47.415L31.8168 47.6531V47.3163H29.8366V47.6589H30.1792V47.3163H25.6439V45.8355H30.1617V42.1596H25.6381V40.673H29.703L30.0921 40.2781L30.1908 40.1794L30.1328 28.7569C30.1254 28.5084 30.0386 28.2688 29.8849 28.0733C29.7313 27.8778 29.5189 27.7368 29.2791 27.671C28.009 27.3099 26.8953 26.5359 26.1142 25.4713C25.333 24.4066 24.9288 23.1121 24.9655 21.7921C25.0021 20.4721 25.4775 19.202 26.3165 18.1823C27.1555 17.1627 28.3103 16.4516 29.5985 16.1615C30.0276 16.0675 30.4658 16.0208 30.9051 16.0221C32.4796 16.0206 33.9904 16.6442 35.1054 17.7559C36.2204 18.8676 36.8484 20.3765 36.8515 21.9511H37.1941L36.8573 21.8872V21.9569C36.8561 23.2578 36.4275 24.5222 35.6374 25.5557C34.8473 26.5892 33.7396 27.3344 32.4846 27.6768C32.2437 27.7416 32.0301 27.8821 31.8753 28.0777C31.7205 28.2733 31.6328 28.5135 31.6251 28.7628L31.6833 41.6195V45.4638L32.0433 45.4754ZM31.6716 25.656L31.7413 25.9928L31.8052 26.3296C32.6647 26.1568 33.4539 25.7339 34.0738 25.114C34.6937 24.4941 35.1166 23.7049 35.2894 22.8454C35.3418 22.5638 35.369 22.2781 35.3707 21.9917C35.3707 20.8145 34.9034 19.6855 34.0716 18.8526C33.2397 18.0196 32.1113 17.5509 30.9341 17.5494C30.6397 17.5499 30.346 17.579 30.0573 17.6365C29.1975 17.8085 28.4078 18.2312 27.7878 18.8512C27.1678 19.4712 26.7451 20.2609 26.573 21.1207C26.5175 21.4018 26.4903 21.6878 26.4917 21.9743C26.4917 23.151 26.9591 24.2794 27.7911 25.1114C28.6232 25.9435 29.7517 26.4109 30.9283 26.4109C31.2245 26.4124 31.5201 26.3852 31.811 26.3296L31.7471 25.9928" fill="#FF3300"/>
<path d="M32.2696 59.5859H28.2047V71.3336H32.2696V59.5859Z" fill="#FF3300"/>
<path d="M47.1591 43.3144C47.0721 41.2256 46.8393 39.1455 46.4623 37.0892C46.1244 35.2277 45.6706 33.3891 45.1035 31.5841C45.0928 31.554 45.0732 31.5278 45.0473 31.5091C45.0213 31.4904 44.9903 31.4801 44.9583 31.4796H41.8573C41.834 31.4796 41.8111 31.4851 41.7902 31.4954C41.7694 31.5058 41.7513 31.5209 41.7372 31.5394C41.7232 31.558 41.7136 31.5795 41.7092 31.6024C41.7049 31.6253 41.7059 31.6488 41.7121 31.6712C42.276 33.5337 42.7279 35.4282 43.0652 37.3447C43.4161 39.3185 43.643 41.3123 43.7446 43.3144C43.7446 47.0245 42.2707 50.5827 39.6473 53.2062C37.0238 55.8297 33.4656 57.3035 29.7554 57.3035C26.0453 57.3035 22.4871 55.8297 19.8636 53.2062C17.2401 50.5827 15.7663 47.0245 15.7663 43.3144C15.972 39.3656 16.6544 35.4562 17.7987 31.6712C17.8062 31.6493 17.8082 31.6258 17.8047 31.6029C17.8012 31.5799 17.7923 31.5582 17.7786 31.5394C17.765 31.5206 17.747 31.5054 17.7262 31.495C17.7055 31.4846 17.6826 31.4793 17.6594 31.4796H14.5584C14.526 31.4783 14.4941 31.4879 14.4678 31.5069C14.4415 31.5258 14.4222 31.553 14.4132 31.5841C13.8467 33.3897 13.391 35.2281 13.0485 37.0892C12.6762 39.146 12.4453 41.226 12.3575 43.3144C12.3788 47.9222 14.2163 52.3357 17.4713 55.5972C20.7263 58.8586 25.1361 60.705 29.7438 60.7355C34.3566 60.7126 38.7739 58.8696 42.0351 55.6073C45.2963 52.345 47.1378 47.9272 47.1591 43.3144Z" fill="#FF3300"/>
<path d="M56.1252 72.0771V78.5905H3.42041V72.0771H56.1252ZM59.5397 68.6626H0.00585938L0.00585938 80.0249C0.00739655 80.549 0.216717 81.0512 0.587911 81.4213C0.959104 81.7914 1.4619 81.9993 1.98608 81.9993H57.5595C58.0837 81.9993 58.5865 81.7914 58.9576 81.4213C59.3288 81.0512 59.5382 80.549 59.5397 80.0249L59.5397 68.6626Z" fill="#FF3300"/>
</svg>
