<svg width="38" height="45" viewBox="0 0 38 45" fill="none" xmlns="http://www.w3.org/2000/svg">
<path d="M38 19.6552C38 30.5104 28 39.3103 19 45C10.5 39.3103 0 30.5104 0 19.6552C0 8.79992 8.50659 0 19 0C29.4934 0 38 8.79992 38 19.6552Z" fill="#FF3300"/>
<path d="M10.2562 25V22.116H7.63823V20.744H10.2562V17.846H11.6142V20.744H14.2462V22.116H11.6142V25H10.2562ZM16.7626 25V23.6H19.0726V17.552H16.7486V16.502C17.0286 16.474 17.3553 16.4087 17.7286 16.306C18.1113 16.194 18.4986 16.0587 18.8906 15.9C19.2826 15.7413 19.6373 15.5733 19.9546 15.396H20.7946V23.6H22.9226V25H16.7626ZM27.489 25.168C26.9664 25.168 26.4997 25.0933 26.089 24.944C25.6784 24.7853 25.3284 24.5193 25.039 24.146C24.7497 23.7727 24.5304 23.2687 24.381 22.634C24.2317 21.99 24.157 21.178 24.157 20.198C24.157 19.218 24.2317 18.4107 24.381 17.776C24.5304 17.132 24.7497 16.6233 25.039 16.25C25.3284 15.8767 25.6784 15.6153 26.089 15.466C26.4997 15.3073 26.9664 15.228 27.489 15.228C28.0117 15.228 28.4737 15.3073 28.875 15.466C29.2857 15.6153 29.6357 15.8767 29.925 16.25C30.2144 16.6233 30.4337 17.132 30.583 17.776C30.7324 18.4107 30.807 19.218 30.807 20.198C30.807 21.178 30.7324 21.99 30.583 22.634C30.4337 23.2687 30.2144 23.7727 29.925 24.146C29.6357 24.5193 29.2857 24.7853 28.875 24.944C28.4737 25.0933 28.0117 25.168 27.489 25.168ZM27.489 23.768C27.9277 23.768 28.2544 23.6513 28.469 23.418C28.693 23.1753 28.8424 22.8207 28.917 22.354C29.001 21.878 29.043 21.29 29.043 20.59V19.862C29.043 19.1433 29.001 18.546 28.917 18.07C28.8424 17.5847 28.693 17.2253 28.469 16.992C28.2544 16.7493 27.9277 16.628 27.489 16.628C27.0597 16.628 26.7284 16.7493 26.495 16.992C26.271 17.2253 26.117 17.58 26.033 18.056C25.9584 18.5227 25.921 19.1107 25.921 19.82V20.548C25.921 21.2573 25.9584 21.8547 26.033 22.34C26.117 22.816 26.271 23.1753 26.495 23.418C26.7284 23.6513 27.0597 23.768 27.489 23.768Z" fill="white"/>
</svg>
