<svg width="38" height="45" viewBox="0 0 38 45" fill="none" xmlns="http://www.w3.org/2000/svg">
<path d="M38 19.6552C38 30.5104 28 39.3103 19 45C10.5 39.3103 0 30.5104 0 19.6552C0 8.79992 8.50659 0 19 0C29.4934 0 38 8.79992 38 19.6552Z" fill="#FF3300"/>
<path d="M10.2631 25V22.116H7.64507V20.744H10.2631V17.846H11.6211V20.744H14.2531V22.116H11.6211V25H10.2631ZM19.4155 25.168C18.7435 25.168 18.1508 25.042 17.6375 24.79C17.1335 24.538 16.7415 24.1787 16.4615 23.712C16.1815 23.236 16.0415 22.6713 16.0415 22.018H17.8055C17.8055 22.3727 17.8708 22.6853 18.0015 22.956C18.1321 23.2173 18.3188 23.418 18.5615 23.558C18.8041 23.698 19.0888 23.768 19.4155 23.768C19.7328 23.768 20.0081 23.698 20.2415 23.558C20.4748 23.418 20.6568 23.208 20.7875 22.928C20.9275 22.6387 20.9975 22.284 20.9975 21.864C20.9975 21.472 20.9321 21.15 20.8015 20.898C20.6708 20.6367 20.4888 20.4453 20.2555 20.324C20.0221 20.1933 19.7561 20.128 19.4575 20.128C19.2335 20.128 19.0281 20.1653 18.8415 20.24C18.6548 20.3147 18.4915 20.4127 18.3515 20.534C18.2115 20.646 18.0901 20.7767 17.9875 20.926L16.3635 20.716L16.7555 15.396H22.2715V16.95H18.2395L18.0855 19.316C18.2161 19.2227 18.3655 19.134 18.5335 19.05C18.7015 18.966 18.8975 18.896 19.1215 18.84C19.3548 18.784 19.6208 18.756 19.9195 18.756C20.4515 18.756 20.9321 18.868 21.3615 19.092C21.7908 19.316 22.1315 19.6567 22.3835 20.114C22.6355 20.5713 22.7615 21.1547 22.7615 21.864C22.7615 22.564 22.6261 23.1613 22.3555 23.656C22.0848 24.1507 21.6975 24.5287 21.1935 24.79C20.6988 25.042 20.1061 25.168 19.4155 25.168ZM27.4822 25.168C26.9595 25.168 26.4929 25.0933 26.0822 24.944C25.6715 24.7853 25.3215 24.5193 25.0322 24.146C24.7429 23.7727 24.5235 23.2687 24.3742 22.634C24.2249 21.99 24.1502 21.178 24.1502 20.198C24.1502 19.218 24.2249 18.4107 24.3742 17.776C24.5235 17.132 24.7429 16.6233 25.0322 16.25C25.3215 15.8767 25.6715 15.6153 26.0822 15.466C26.4929 15.3073 26.9595 15.228 27.4822 15.228C28.0049 15.228 28.4669 15.3073 28.8682 15.466C29.2789 15.6153 29.6289 15.8767 29.9182 16.25C30.2075 16.6233 30.4269 17.132 30.5762 17.776C30.7255 18.4107 30.8002 19.218 30.8002 20.198C30.8002 21.178 30.7255 21.99 30.5762 22.634C30.4269 23.2687 30.2075 23.7727 29.9182 24.146C29.6289 24.5193 29.2789 24.7853 28.8682 24.944C28.4669 25.0933 28.0049 25.168 27.4822 25.168ZM27.4822 23.768C27.9209 23.768 28.2475 23.6513 28.4622 23.418C28.6862 23.1753 28.8355 22.8207 28.9102 22.354C28.9942 21.878 29.0362 21.29 29.0362 20.59V19.862C29.0362 19.1433 28.9942 18.546 28.9102 18.07C28.8355 17.5847 28.6862 17.2253 28.4622 16.992C28.2475 16.7493 27.9209 16.628 27.4822 16.628C27.0529 16.628 26.7215 16.7493 26.4882 16.992C26.2642 17.2253 26.1102 17.58 26.0262 18.056C25.9515 18.5227 25.9142 19.1107 25.9142 19.82V20.548C25.9142 21.2573 25.9515 21.8547 26.0262 22.34C26.1102 22.816 26.2642 23.1753 26.4882 23.418C26.7215 23.6513 27.0529 23.768 27.4822 23.768Z" fill="white"/>
</svg>
