<svg width="38" height="45" viewBox="0 0 38 45" fill="none" xmlns="http://www.w3.org/2000/svg">
<path d="M38 19.6552C38 30.5104 28 39.3103 19 45C10.5 39.3103 0 30.5104 0 19.6552C0 8.79992 8.50659 0 19 0C29.4934 0 38 8.79992 38 19.6552Z" fill="#FF3300"/>
<path d="M8.55417 24V21.528H6.31017V20.352H8.55417V17.868H9.71817V20.352H11.9742V21.528H9.71817V24H8.55417ZM14.1311 24V22.8H16.1111V17.616H14.1191V16.716C14.3591 16.692 14.6391 16.636 14.9591 16.548C15.2871 16.452 15.6191 16.336 15.9551 16.2C16.2911 16.064 16.5951 15.92 16.8671 15.768H17.5871V22.8H19.4111V24H14.1311ZM23.3251 24.144C22.8771 24.144 22.4771 24.08 22.1251 23.952C21.7731 23.816 21.4731 23.588 21.2251 23.268C20.9771 22.948 20.7891 22.516 20.6611 21.972C20.5331 21.42 20.4691 20.724 20.4691 19.884C20.4691 19.044 20.5331 18.352 20.6611 17.808C20.7891 17.256 20.9771 16.82 21.2251 16.5C21.4731 16.18 21.7731 15.956 22.1251 15.828C22.4771 15.692 22.8771 15.624 23.3251 15.624C23.7731 15.624 24.1691 15.692 24.5131 15.828C24.8651 15.956 25.1651 16.18 25.4131 16.5C25.6611 16.82 25.8491 17.256 25.9771 17.808C26.1051 18.352 26.1691 19.044 26.1691 19.884C26.1691 20.724 26.1051 21.42 25.9771 21.972C25.8491 22.516 25.6611 22.948 25.4131 23.268C25.1651 23.588 24.8651 23.816 24.5131 23.952C24.1691 24.08 23.7731 24.144 23.3251 24.144ZM23.3251 22.944C23.7011 22.944 23.9811 22.844 24.1651 22.644C24.3571 22.436 24.4851 22.132 24.5491 21.732C24.6211 21.324 24.6571 20.82 24.6571 20.22V19.596C24.6571 18.98 24.6211 18.468 24.5491 18.06C24.4851 17.644 24.3571 17.336 24.1651 17.136C23.9811 16.928 23.7011 16.824 23.3251 16.824C22.9571 16.824 22.6731 16.928 22.4731 17.136C22.2811 17.336 22.1491 17.64 22.0771 18.048C22.0131 18.448 21.9811 18.952 21.9811 19.56V20.184C21.9811 20.792 22.0131 21.304 22.0771 21.72C22.1491 22.128 22.2811 22.436 22.4731 22.644C22.6731 22.844 22.9571 22.944 23.3251 22.944ZM30.2275 24.144C29.7795 24.144 29.3795 24.08 29.0275 23.952C28.6755 23.816 28.3755 23.588 28.1275 23.268C27.8795 22.948 27.6915 22.516 27.5635 21.972C27.4355 21.42 27.3715 20.724 27.3715 19.884C27.3715 19.044 27.4355 18.352 27.5635 17.808C27.6915 17.256 27.8795 16.82 28.1275 16.5C28.3755 16.18 28.6755 15.956 29.0275 15.828C29.3795 15.692 29.7795 15.624 30.2275 15.624C30.6755 15.624 31.0715 15.692 31.4155 15.828C31.7675 15.956 32.0675 16.18 32.3155 16.5C32.5635 16.82 32.7515 17.256 32.8795 17.808C33.0075 18.352 33.0715 19.044 33.0715 19.884C33.0715 20.724 33.0075 21.42 32.8795 21.972C32.7515 22.516 32.5635 22.948 32.3155 23.268C32.0675 23.588 31.7675 23.816 31.4155 23.952C31.0715 24.08 30.6755 24.144 30.2275 24.144ZM30.2275 22.944C30.6035 22.944 30.8835 22.844 31.0675 22.644C31.2595 22.436 31.3875 22.132 31.4515 21.732C31.5235 21.324 31.5595 20.82 31.5595 20.22V19.596C31.5595 18.98 31.5235 18.468 31.4515 18.06C31.3875 17.644 31.2595 17.336 31.0675 17.136C30.8835 16.928 30.6035 16.824 30.2275 16.824C29.8595 16.824 29.5755 16.928 29.3755 17.136C29.1835 17.336 29.0515 17.64 28.9795 18.048C28.9155 18.448 28.8835 18.952 28.8835 19.56V20.184C28.8835 20.792 28.9155 21.304 28.9795 21.72C29.0515 22.128 29.1835 22.436 29.3755 22.644C29.5755 22.844 29.8595 22.944 30.2275 22.944Z" fill="white"/>
</svg>
